<svg width="1006" height="611" viewBox="0 0 1006 611" fill="none" xmlns="http://www.w3.org/2000/svg">
<path d="M952.21 322.705C951.465 327.746 950.84 330.881 950.687 331.626C935.869 401.472 887.701 460.566 823.149 506.104C822.042 506.882 820.924 507.66 819.806 508.438C818.524 509.326 817.231 510.214 815.938 511.068C806.71 517.337 797.182 523.325 787.355 529.031C787.026 529.229 786.686 529.415 786.357 529.601C784.297 530.807 782.237 531.98 780.154 533.13C775.639 535.688 771.072 538.164 766.455 540.561C757.49 545.274 748.349 549.749 739.034 553.986C736.644 555.082 734.244 556.167 731.833 557.22C699.259 571.534 665.533 583.068 631.015 591.699C619.639 594.559 608.248 597.091 596.843 599.294C567.31 605.08 537.374 608.575 507.303 609.749C483.37 610.57 459.409 609.955 435.55 607.908C425.664 607.075 415.68 606.008 405.597 604.708C386.297 602.22 366.756 598.844 347.324 594.537C345.417 594.121 343.521 593.682 341.614 593.244C339.302 592.707 337 592.159 334.688 591.6C323.202 588.805 311.804 585.675 300.494 582.208C298.083 581.484 295.683 580.728 293.293 579.961C292.877 579.829 292.471 579.698 292.066 579.566C291.321 579.314 290.564 579.073 289.808 578.821C275.615 574.163 261.664 568.957 248.139 563.182C247.339 562.842 246.55 562.502 245.75 562.151C242.035 560.551 238.356 558.904 234.714 557.209C223.634 552.058 212.911 546.508 202.547 540.561C195.785 536.681 189.213 532.619 182.831 528.374C181.647 527.596 180.464 526.807 179.291 526.007C175.4 523.343 171.586 520.625 167.849 517.82C163.772 514.784 159.797 511.657 155.925 508.438C122.772 480.94 97.477 447.404 84.7419 407.335C83.624 403.795 82.5828 400.201 81.6513 396.529C75.1672 370.503 73.1402 343.567 75.6563 316.863C79.9744 269.507 98.2442 223.257 132.384 194.685C161.032 170.694 199.062 160.644 234.714 157.28C234.944 157.247 235.185 157.236 235.426 157.214C281.643 152.951 323.706 159.877 335.861 162.102C378.165 169.872 416.502 186.619 480.123 179.462C485.23 178.881 502.754 176.777 534.702 167.998C535.392 167.812 536.094 167.615 536.806 167.417C539.886 166.562 542.889 165.7 545.815 164.831C636.473 138.122 657.538 108.739 711.13 95.1164C714.846 94.1629 718.704 93.3081 722.66 92.5299C728.556 91.3901 734.694 90.4366 741.017 89.7243C793.229 83.8389 857.694 93.7355 901.357 134.155C944.133 173.752 954.457 231.027 955.257 273.737C955.572 290.115 954.553 306.492 952.21 322.705Z" fill="#E6F5FA"/>
<path d="M819.811 508.436C755.688 552.812 675.97 583.99 596.853 599.298C567.316 605.075 537.379 608.569 507.306 609.749C483.372 610.564 459.41 609.95 435.549 607.911C401.56 605.075 367.84 599.62 334.69 591.594C320.333 588.1 306.085 584.097 292.074 579.564C291.323 579.317 290.565 579.076 289.813 578.824C275.616 574.162 261.671 568.954 248.144 563.182C247.345 562.842 246.552 562.501 245.759 562.154C242.044 560.551 238.362 558.902 234.715 557.205C205.722 543.725 178.93 527.536 155.926 508.435L819.811 508.436Z" fill="#D8ECF3"/>
<path d="M952.215 322.705C951.47 327.747 950.841 330.883 950.681 331.623C921.029 471.468 757.69 568.181 596.847 599.3C596.847 598.752 596.828 598.189 596.776 597.638C596.423 593.886 594.674 590.421 593.834 586.746C590.517 572.343 601.655 558.369 614.285 550.689C626.915 543.01 641.663 538.928 653.33 529.852C647.282 525.237 652.062 515.604 657.516 510.305C670.522 497.703 686.065 488.017 703.109 481.893C700.369 460.491 723.853 440.334 744.584 446.274C744.719 441.031 746.716 436.007 750.216 432.101C753.716 428.195 758.492 425.662 763.689 424.955C768.886 424.248 774.165 425.414 778.581 428.243C782.998 431.072 786.263 435.38 787.794 440.397C788.678 432.891 790.784 425.58 794.029 418.755C796.864 412.788 805.743 413.246 807.827 419.512C807.837 419.556 807.851 419.598 807.868 419.64C814.744 405.801 836.363 402.59 846.966 413.832C843.267 400.057 859.86 385.684 872.966 391.308C866.683 382.078 864.981 369.185 870.911 359.719C876.841 350.253 891.255 346.491 899.881 353.582C893.751 343.13 901.472 327.535 913.502 326.073C919.64 325.328 925.739 327.694 931.921 327.853C935.121 327.924 938.274 327.077 941.007 325.412C944.337 323.287 948.282 322.335 952.215 322.705ZM740.735 144.651C740.735 171.79 702.171 193.855 654.264 194.353C653.706 194.365 653.153 194.365 652.595 194.365C649.173 194.365 645.801 194.248 642.485 194.037C633.808 202.46 622.493 207.636 610.446 208.694C598.399 209.752 586.355 206.627 576.343 199.845C576.084 199.675 575.837 199.499 575.585 199.324C575.644 199.681 575.695 200.046 575.738 200.41V200.415C575.872 201.52 575.939 202.632 575.938 203.745C575.938 216.515 567.401 228.158 553.368 236.959C552.058 237.788 550.696 238.58 549.293 239.349C538.494 245.285 525.009 249.671 509.965 251.861V251.867C508.374 252.096 506.78 252.3 505.185 252.478C503.864 252.63 502.537 252.76 501.211 252.877H501.204C488.974 253.931 476.663 253.537 464.526 251.703C464.526 251.696 464.525 251.696 464.519 251.696C464.173 251.644 463.833 251.587 463.487 251.532C448.478 249.108 435.101 244.498 424.523 238.345C413.701 232.057 405.805 224.154 402.076 215.341C400.637 215.394 399.199 215.434 397.743 215.434C396.457 215.434 395.177 215.411 393.907 215.364C388.652 215.188 383.419 214.609 378.253 213.632C377.225 213.439 376.21 213.227 375.206 212.998H375.2C366.43 211.14 358.045 207.789 350.41 203.093C348.604 204.628 346.717 206.065 344.756 207.396C342.069 209.22 339.273 210.876 336.384 212.358C335.398 212.869 334.387 213.367 333.354 213.843C332.08 214.448 330.771 215.023 329.438 215.576H329.426C327.177 216.52 324.858 217.389 322.45 218.2C308.828 222.637 294.581 224.853 280.255 224.764H279.75C267.775 224.694 256.315 219.884 247.877 211.386C239.439 202.888 234.711 191.394 234.727 179.419V157.28C234.962 157.25 235.202 157.233 235.438 157.215C281.658 152.952 323.721 159.875 335.876 162.107C378.18 169.868 416.515 186.614 480.138 179.457C485.247 178.882 502.767 176.773 534.717 167.995C535.409 167.808 536.107 167.614 536.819 167.414C539.895 166.557 542.9 165.696 545.832 164.83C636.482 138.121 657.554 108.74 711.138 95.1125C714.864 94.1663 718.708 93.3052 722.669 92.5293C723.013 99.2652 721.939 105.998 719.516 112.293C731.552 120.201 739.25 130.259 740.548 141.315C740.678 142.422 740.74 143.536 740.735 144.651Z" fill="#CAE5EF"/>
<path d="M605.464 164.83C605.464 164.83 605.447 164.889 605.417 165.007C605.159 165.883 603.938 170.027 601.665 176.708C600.062 181.412 597.938 187.377 595.248 194.353C593.791 198.141 592.164 202.212 590.369 206.567C578.713 234.828 564.786 262.097 548.722 288.107C548.076 289.152 547.418 290.201 546.749 291.253C541.06 300.272 534.913 309.385 528.29 318.463C528.289 318.467 528.288 318.471 528.286 318.475C528.284 318.479 528.281 318.483 528.278 318.486C527.856 319.067 527.426 319.648 526.998 320.224C526.493 320.911 525.982 321.604 525.463 322.291C524.818 323.159 524.168 324.026 523.514 324.892C523.514 324.892 523.513 324.892 523.503 324.904C509.542 343.48 493.983 360.8 477.005 376.666C439.07 411.898 405.905 451.939 378.353 495.77C378.353 495.77 378.353 495.77 378.353 495.781C377.695 496.827 377.049 497.872 376.409 498.905C369.29 510.474 363.059 521.589 357.71 532.001V532.012C357.352 532.699 357.006 533.38 356.665 534.056C344.569 557.948 337.247 578.074 334.694 591.594C320.337 588.1 306.089 584.096 292.078 579.563C291.327 579.317 290.569 579.076 289.817 578.824C275.62 574.161 261.675 568.953 248.148 563.182C247.349 562.841 246.556 562.5 245.763 562.154C242.047 560.551 238.366 558.901 234.719 557.205V462.093C264.265 419.595 307.685 371.443 371.276 324.221C375.256 321.269 378.232 317.165 379.802 312.466C381.372 307.766 381.46 302.697 380.054 297.946C380.042 297.899 380.024 297.846 380.013 297.799C378.181 291.628 375.914 284.382 373.396 277.249C371.976 273.232 370.237 269.336 368.194 265.598C368.193 265.594 368.193 265.59 368.194 265.586C367.901 265.028 367.589 264.475 367.271 263.929C366.954 263.384 366.645 262.834 366.315 262.298C366.315 262.298 366.315 262.298 366.315 262.286C361.65 254.574 355.735 247.693 348.811 241.924C341.29 235.652 331.772 227.347 322.496 218.238L322.454 218.197C318.878 214.69 315.338 211.073 311.961 207.393C308.315 203.483 304.859 199.408 301.592 195.169C300.419 193.654 299.272 192.117 298.152 190.559C293.067 183.361 289.375 176.397 288.059 170.209C296.287 171.121 304.582 169.225 311.597 164.83L322.825 178.682L331.921 189.908L336.777 195.896C337.317 196.588 338.058 197.095 338.898 197.348C339.738 197.601 340.636 197.588 341.468 197.311C342.209 197.049 342.86 196.581 343.345 195.963C343.831 195.344 344.13 194.601 344.208 193.818L345.085 184.994L345.396 181.858L345.889 176.937C348.012 178.635 350.385 179.993 352.923 180.965C357.769 182.903 362.947 183.871 368.166 183.814C368.735 183.814 369.316 183.803 369.909 183.779C369.957 183.779 370.004 183.779 370.05 183.779H370.062C373.478 183.625 376.87 183.136 380.19 182.317C382.041 188.752 384.24 195.081 386.777 201.278C388.727 206.176 391.115 210.888 393.912 215.357C395.449 217.88 397.402 220.124 399.689 221.992C402.767 224.299 407.17 229.913 411.885 236.753L411.884 236.756L411.885 236.759C412.461 237.592 413.038 238.444 413.618 239.313C416.271 243.259 418.988 247.504 421.579 251.697C425.771 258.455 429.658 265.061 432.53 270.022C433.015 270.862 433.662 271.599 434.432 272.19C435.202 272.78 436.082 273.213 437.019 273.464C437.957 273.715 438.935 273.779 439.897 273.652C440.86 273.525 441.787 273.209 442.628 272.724C443.209 272.385 443.742 271.971 444.213 271.491C445.863 269.8 447.771 267.844 449.885 265.666C449.887 265.658 449.891 265.652 449.897 265.648L451.454 264.037H451.46C454.937 260.449 458.893 256.339 463.162 251.865L463.48 251.53C471.48 243.14 480.536 233.504 489.49 223.699C491.427 221.58 493.357 219.454 495.279 217.322C510.732 200.184 525.089 183.238 532.199 172.2C532.199 172.2 532.206 172.2 532.206 172.188C532.664 171.484 533.082 170.798 533.485 170.139C533.937 169.394 534.342 168.678 534.707 167.996C535.399 167.809 536.097 167.615 536.809 167.415C539.885 166.558 542.89 165.697 545.822 164.831L605.464 164.83Z" fill="#D8ECF3"/>
<path d="M494.076 330.874C482.593 333.906 470.721 337.038 459.32 341.066C430.525 351.228 410.192 365.935 398.885 384.775C392.102 396.077 388.598 408.727 385.821 420.712C379.883 446.33 376.578 472.487 375.957 498.776C375.956 498.83 375.973 498.883 376.005 498.927C376.037 498.971 376.083 499.003 376.135 499.018C376.187 499.034 376.242 499.032 376.293 499.013C376.344 498.994 376.387 498.959 376.416 498.913C377.056 497.874 377.703 496.831 378.356 495.786L378.393 495.664C379.191 470.599 382.444 445.672 388.106 421.242C390.839 409.443 394.281 397.006 400.896 385.984C411.914 367.624 431.833 353.257 460.098 343.281C471.41 339.289 483.236 336.166 494.673 333.146C504.15 330.644 513.872 328.07 523.401 324.984L523.523 324.897C524.181 324.031 524.832 323.163 525.476 322.294C525.508 322.253 525.526 322.202 525.526 322.149C525.527 322.096 525.51 322.045 525.479 322.003C525.448 321.96 525.404 321.929 525.354 321.913C525.304 321.898 525.25 321.899 525.2 321.916C514.933 325.358 504.362 328.159 494.076 330.874Z" fill="#CAE5EF"/>
<path d="M357.706 532.003V532.014C357.702 532.035 357.694 532.055 357.683 532.073C357.355 532.713 357.026 533.359 356.697 533.999C356.685 534.02 356.671 534.04 356.655 534.058C356.643 534.071 356.629 534.083 356.614 534.093C356.558 534.127 356.491 534.138 356.427 534.122C356.363 534.107 356.308 534.067 356.274 534.011C354.84 531.734 353.32 529.508 351.711 527.336C348.822 523.425 344.83 518.511 339.569 515.181C335.904 512.94 331.802 511.511 327.538 510.988C323.274 510.466 318.947 510.863 314.85 512.152C313.39 512.625 312.064 513.438 310.98 514.524C309.896 515.61 309.085 516.938 308.615 518.399C302.267 537.722 295.715 558.402 292.066 579.568C291.314 579.322 290.557 579.08 289.805 578.828C293.78 555.923 301.107 533.658 307.901 513.038L308.129 512.639L308.44 512.387C313.434 509.664 319.057 508.307 324.742 508.451C330.427 508.595 335.974 510.236 340.823 513.209C346.406 516.743 350.577 521.874 353.599 525.949C355.013 527.863 356.37 529.82 357.668 531.82C357.703 531.874 357.717 531.94 357.706 532.003Z" fill="#64A6BE"/>
<path d="M580.544 171.939C577.236 183.551 573.228 194.951 568.541 206.077H568.534C564.085 216.655 559.024 226.965 553.375 236.954C549.341 244.115 545.007 251.102 540.374 257.916C539.676 258.939 538.975 259.962 538.272 260.984C533.241 268.3 528.038 275.869 525.549 284.359C524.164 289.23 523.618 294.301 523.935 299.355C523.937 299.386 523.945 299.416 523.958 299.443C523.971 299.473 523.99 299.501 524.013 299.524C524.037 299.547 524.065 299.565 524.095 299.577C524.126 299.589 524.159 299.594 524.192 299.594C524.224 299.593 524.257 299.586 524.287 299.572C532.489 295.938 540.531 292 548.412 287.759C548.45 287.739 548.493 287.728 548.536 287.728C548.579 287.728 548.621 287.739 548.659 287.759C548.687 287.776 548.711 287.798 548.73 287.824C548.75 287.851 548.763 287.881 548.77 287.913C548.778 287.945 548.778 287.978 548.772 288.01C548.766 288.042 548.754 288.073 548.736 288.1C548.09 289.145 547.432 290.194 546.763 291.246C546.733 291.278 546.702 291.307 546.67 291.335C539.347 295.193 531.9 298.784 524.328 302.109C524.28 302.131 524.24 302.168 524.213 302.214C524.187 302.261 524.176 302.314 524.182 302.367C524.834 307.822 526.225 313.164 528.316 318.244C528.329 318.278 528.336 318.315 528.334 318.351C528.331 318.388 528.321 318.424 528.304 318.456C528.303 318.46 528.302 318.465 528.3 318.469C528.298 318.473 528.295 318.476 528.291 318.479C527.87 319.06 527.44 319.642 527.011 320.217C526.987 320.254 526.952 320.282 526.912 320.299C526.851 320.324 526.783 320.325 526.721 320.301C526.66 320.277 526.61 320.23 526.583 320.17C524.29 314.843 522.735 309.227 521.962 303.479C521.963 303.456 521.956 303.434 521.944 303.415C521.931 303.385 521.914 303.359 521.891 303.336C521.868 303.314 521.842 303.296 521.812 303.284C521.783 303.272 521.751 303.266 521.719 303.266C521.688 303.267 521.656 303.273 521.627 303.285C497.38 313.719 472.03 321.375 446.061 326.108C444.804 326.327 443.548 326.559 442.286 326.777C431.107 328.75 419.545 330.788 410.128 336.928C396.447 345.854 389.647 361.636 383.072 376.901C380.417 383.067 377.67 389.444 374.493 395.332C364.27 414.298 348.583 429.628 333.405 444.454C321.292 456.29 308.767 468.533 299.091 482.548C292.263 492.447 286.726 503.438 281.371 514.054C275.665 525.374 269.769 537.082 262.26 547.581C258.158 553.295 253.425 558.528 248.15 563.182C247.351 562.841 246.559 562.5 245.766 562.154C251.239 557.438 256.132 552.089 260.342 546.218C267.746 535.862 273.603 524.236 279.266 512.997C284.656 502.305 290.233 491.249 297.157 481.214C306.956 467.011 319.568 454.687 331.757 442.773C346.806 428.071 362.365 412.863 372.418 394.216C375.541 388.421 378.266 382.091 380.903 375.973C387.619 360.384 394.565 344.267 408.832 334.961C418.655 328.555 430.458 326.476 441.866 324.463C443.128 324.244 444.383 324.02 445.629 323.793C471.717 319.041 497.176 311.319 521.507 300.778C521.554 300.758 521.592 300.724 521.619 300.68C521.645 300.637 521.657 300.587 521.653 300.537C521.181 294.871 521.738 289.166 523.297 283.698C525.892 274.85 531.2 267.123 536.333 259.659C537.036 258.637 537.735 257.614 538.428 256.591C542.251 250.96 545.874 245.21 549.297 239.34C553.818 231.595 557.975 223.661 561.767 215.537C562.883 213.148 563.966 210.744 565.014 208.327C570.248 196.287 574.678 183.915 578.275 171.289C578.284 171.258 578.299 171.229 578.319 171.204C578.339 171.178 578.364 171.157 578.393 171.142C578.422 171.127 578.453 171.117 578.485 171.114C578.518 171.111 578.55 171.115 578.581 171.125L580.365 171.63C580.397 171.639 580.428 171.653 580.454 171.673C580.481 171.693 580.503 171.719 580.519 171.747C580.536 171.776 580.547 171.808 580.551 171.841C580.555 171.874 580.553 171.907 580.544 171.939Z" fill="#CAE5EF"/>
<path d="M457.613 267.063C460.987 267.37 464.554 267.611 468.194 267.611C475.046 267.782 481.864 266.59 488.251 264.104C496.706 260.564 503.658 253.985 509.791 248.179L525.318 233.486C529.148 229.86 533.489 225.753 535.71 220.405C537.811 215.356 537.793 209.702 537.786 204.718C537.76 193.758 537.719 181.404 533.926 170.195C533.916 170.164 533.9 170.135 533.879 170.111C533.857 170.086 533.832 170.066 533.803 170.052C533.774 170.037 533.742 170.028 533.71 170.026C533.677 170.024 533.645 170.028 533.614 170.038C533.557 170.057 533.51 170.096 533.48 170.148C533.086 170.805 532.66 171.488 532.203 172.197C532.184 172.227 532.172 172.261 532.167 172.296C532.162 172.331 532.165 172.367 532.175 172.401C535.377 182.804 535.411 193.935 535.437 204.732C535.448 209.496 535.462 214.896 533.541 219.512C531.511 224.398 527.362 228.324 523.702 231.787L508.175 246.482C501.892 252.424 495.401 258.57 487.342 261.945C477.878 265.907 467.111 265.576 457.826 264.73C455.843 264.549 453.762 264.327 451.671 263.98C451.631 263.973 451.59 263.976 451.552 263.989C451.514 264.002 451.479 264.023 451.451 264.052L449.892 265.66C449.847 265.708 449.822 265.771 449.824 265.837C449.826 265.903 449.853 265.965 449.901 266.011C449.936 266.044 449.979 266.066 450.027 266.074C452.608 266.561 455.182 266.841 457.613 267.063ZM234.711 497.693C234.711 497.735 234.722 497.776 234.742 497.813C234.763 497.85 234.792 497.881 234.828 497.903C234.863 497.926 234.904 497.939 234.946 497.941C234.988 497.944 235.03 497.935 235.068 497.917C247.467 491.976 257.963 482.693 265.375 471.113C267.879 467.137 270.017 462.893 272.086 458.779C274.375 453.98 276.967 449.331 279.846 444.86C288.459 432.123 301.883 422.777 313.726 414.53L342.314 394.626C350.499 388.927 360.683 381.836 365.468 371.391C371.329 358.605 367.649 344.174 360.386 332.813C360.35 332.758 360.293 332.719 360.228 332.705C360.164 332.692 360.096 332.704 360.04 332.74C359.999 332.766 359.967 332.804 359.949 332.849L358.65 333.836C358.613 333.845 358.578 333.864 358.549 333.889C358.52 333.915 358.498 333.947 358.484 333.983C358.469 334.019 358.464 334.058 358.468 334.097C358.471 334.135 358.484 334.172 358.505 334.205C365.341 344.946 368.799 358.481 363.334 370.408C358.813 380.272 348.922 387.157 340.976 392.691L312.386 412.595C300.375 420.958 286.761 430.437 277.904 443.539C274.966 448.091 272.322 452.827 269.989 457.717C267.946 461.772 265.834 465.975 263.39 469.856C256.381 480.815 246.512 489.652 234.849 495.414C234.808 495.435 234.774 495.466 234.751 495.505C234.727 495.543 234.714 495.588 234.714 495.633L234.711 497.693ZM383.403 224.046C391.636 232.091 402.582 236.048 413.329 239.693C413.379 239.709 413.432 239.709 413.481 239.694C413.53 239.678 413.574 239.648 413.605 239.606C413.636 239.565 413.653 239.515 413.655 239.463C413.656 239.411 413.641 239.36 413.612 239.317C413.028 238.452 412.449 237.601 411.876 236.766L411.754 236.674C401.718 233.219 392.356 229.515 385.044 222.367C374.971 212.524 371.38 198.793 370.29 184.008C370.285 183.945 370.256 183.886 370.208 183.843C370.16 183.801 370.098 183.779 370.034 183.782C369.405 183.808 368.789 183.819 368.182 183.82C368.15 183.82 368.118 183.826 368.088 183.839C368.058 183.851 368.031 183.869 368.008 183.892C367.985 183.915 367.967 183.942 367.955 183.972C367.943 184.002 367.936 184.034 367.937 184.066V184.084C369.049 199.389 372.785 213.671 383.403 224.046ZM322.667 218.31C329.268 217.91 335.866 217.611 342.462 217.413L342.577 217.438C352.021 222.023 359.046 228.759 362.531 236.674C365.517 243.455 365.981 251.195 366.181 257.919C366.222 259.34 366.254 260.763 366.274 262.188L366.307 262.298C366.959 263.377 367.584 264.473 368.184 265.585C368.211 265.633 368.252 265.671 368.302 265.693C368.353 265.715 368.409 265.72 368.462 265.706C368.515 265.693 368.562 265.662 368.596 265.619C368.63 265.576 368.648 265.523 368.649 265.468C368.644 262.923 368.604 260.382 368.531 257.844C368.325 250.9 367.84 242.889 364.684 235.722C361.547 228.598 355.758 222.393 348.037 217.727C347.991 217.7 347.955 217.659 347.935 217.61C347.914 217.56 347.911 217.506 347.924 217.454C347.937 217.403 347.967 217.357 348.008 217.323C348.05 217.29 348.101 217.271 348.154 217.27C349.757 217.238 351.358 217.212 352.958 217.192C356.783 217.145 360.18 217.234 363.014 218.764C365.966 220.359 367.984 223.412 369.795 226.401C378.513 240.787 385.296 256.259 389.971 272.417C391.74 278.534 393.089 285.483 389.677 290.623C387.55 293.826 383.836 295.784 380.559 297.51L380.002 297.804C380.016 297.851 380.032 297.901 380.045 297.948C380.118 298.192 380.186 298.436 380.249 298.681L381.933 299.441C385.234 297.7 389.243 295.523 391.634 291.925C395.579 285.986 394.154 278.402 392.23 271.767C387.499 255.411 380.632 239.749 371.806 225.188C369.827 221.923 367.603 218.577 364.135 216.702C360.808 214.904 357.089 214.797 352.936 214.847C349.656 214.886 346.373 214.952 343.086 215.043L342.976 215.02C342.072 214.595 341.156 214.18 340.212 213.793C331.292 210.137 321.765 208.527 312.393 207.225L312.174 207.64C312.839 208.361 313.511 209.081 314.188 209.799L314.331 209.873C321.777 210.8 329.116 212.448 336.243 214.796C336.297 214.816 336.341 214.854 336.37 214.903C336.398 214.952 336.409 215.01 336.4 215.066C336.392 215.122 336.364 215.173 336.322 215.212C336.28 215.25 336.226 215.272 336.169 215.275C331.07 215.473 325.971 215.735 320.87 216.062C320.838 216.064 320.806 216.073 320.776 216.088C320.747 216.103 320.721 216.123 320.699 216.148C320.678 216.173 320.661 216.202 320.651 216.233C320.641 216.264 320.637 216.297 320.639 216.33C320.643 216.389 320.669 216.445 320.711 216.487C321.301 217.072 321.892 217.656 322.484 218.241C322.508 218.264 322.537 218.282 322.568 218.294C322.599 218.306 322.633 218.311 322.667 218.31Z" fill="#CAE5EF"/>
<path d="M753.57 115.293C753.57 124.835 748.802 133.747 740.541 141.316C725.029 155.531 697.192 165.007 665.427 165.007H665.374C662.931 165.007 660.506 164.943 658.111 164.831C657.172 164.79 656.248 164.738 655.316 164.679C646.526 173.21 635.033 178.407 622.821 179.372C610.609 180.336 598.443 177.009 588.422 169.963C588.651 171.426 588.768 172.904 588.774 174.384C588.774 183.69 584.235 192.398 576.344 199.843C576.145 200.031 575.951 200.219 575.746 200.407H575.739V200.413C573.477 202.472 571.07 204.365 568.536 206.079H568.529C567.396 206.853 566.227 207.605 565.022 208.333C558.723 212.062 552.027 215.076 545.059 217.32C542.111 218.295 539.058 219.172 535.9 219.95C534.96 220.186 534.01 220.41 533.05 220.62C522.406 222.955 511.537 224.119 500.639 224.09C496.871 224.09 493.16 223.959 489.508 223.696C463.085 221.818 440.31 213.345 426.518 201.292L426.512 201.285V201.279C421.543 197.118 417.578 191.888 414.915 185.979C413.477 186.031 412.045 186.072 410.588 186.072C400.672 186.116 390.803 184.696 381.302 181.857C374.951 179.961 368.881 177.228 363.252 173.73C361.15 175.515 358.94 177.168 356.635 178.681C355.444 179.466 354.205 180.23 352.931 180.964C350.389 182.441 347.773 183.785 345.092 184.992C340.816 186.922 336.417 188.564 331.922 189.907C331.183 190.126 330.437 190.343 329.685 190.558C320.508 193.069 311.094 194.614 301.595 195.167C298.766 195.338 295.93 195.416 293.087 195.402C286.623 195.407 280.165 194.976 273.759 194.111C264.293 192.799 255.485 188.521 248.601 181.892C241.717 175.264 237.11 166.624 235.442 157.214C281.662 152.951 323.725 159.874 335.879 162.105C378.184 169.867 416.519 186.612 480.142 179.456C485.251 178.88 502.771 176.771 534.721 167.994C535.413 167.806 536.111 167.612 536.823 167.413C539.899 166.556 542.904 165.695 545.836 164.829C636.485 138.12 657.558 108.738 711.142 95.111C714.868 94.1649 718.712 93.3038 722.673 92.5279C728.574 91.3826 734.716 90.4367 741.04 89.7266C748.99 97.1978 753.57 105.94 753.57 115.293ZM435.551 607.912C292.58 595.966 125.242 534.702 84.7465 407.33C83.625 403.796 82.5937 400.197 81.6526 396.532C75.1745 370.506 73.1494 343.57 75.6631 316.868C78.8035 316.978 81.8378 318.032 84.3706 319.892C87.1256 321.812 90.4574 322.727 93.8068 322.481C100.313 321.994 106.824 318.755 113.247 319.398C125.818 320.643 133.194 339.65 126.253 352.925C135.659 343.712 150.62 347.712 156.408 359.184C162.197 370.657 159.796 386.756 152.75 398.523C166.795 390.913 183.547 407.977 179.008 425.264C190.68 410.798 213.251 413.757 219.821 430.634C219.839 430.582 219.856 430.525 219.868 430.47C222.357 422.585 231.705 421.598 234.405 428.873C237.536 437.418 239.398 446.375 239.931 455.459C243.583 442.983 255.249 433.887 265.994 435.139C276.739 436.391 285.27 447.839 285.064 460.714C307.134 452.353 330.856 476.286 326.968 502.996C344.966 510.066 360.954 521.445 373.529 536.134C379.009 542.458 383.576 554.195 377.006 560.219C388.83 570.94 404.143 575.303 417.049 584.251C425.499 590.051 431.959 598.313 435.551 607.912Z" fill="#CAE5EF"/>
<path d="M361.679 125.425C324.802 117.484 285.749 102.214 267.595 69.1473C261.075 57.2725 257.787 42.7619 262.58 30.0915C269.015 13.0766 287.981 4.08965 305.98 1.47139C328.509 -1.74513 351.477 2.28086 371.569 12.9681C398.901 27.5982 420.817 54.4526 451.514 58.7795C474.996 62.086 497.793 51.2283 520.41 44.1023C543.028 36.9763 570.695 34.5761 587.703 51.1066C591.768 55.0587 592.446 60.3128 592.838 62.4576C596.156 80.541 578.243 97.135 571.766 103.137C562.925 111.327 542.394 126.802 478.132 131.985C443.551 134.771 408.292 135.463 361.679 125.425Z" fill="#E6F5FA"/>
<path d="M220.314 266.415H4.53914C0.868936 260.048 -0.637281 252.664 0.246598 245.369C1.13048 238.074 4.35676 231.262 9.44111 225.957C14.5255 220.652 21.1935 217.139 28.4443 215.946C35.695 214.752 43.1372 215.943 49.6535 219.34C50.2549 211.764 52.5022 204.411 56.2385 197.793C59.9748 191.175 65.1102 185.453 71.2863 181.025C77.4624 176.596 84.5304 173.569 91.997 172.154C99.4637 170.74 107.149 170.971 114.517 172.833C121.885 174.695 128.758 178.142 134.656 182.934C140.555 187.726 145.336 193.747 148.667 200.578C151.999 207.408 153.799 214.883 153.943 222.481C154.088 230.08 152.572 237.618 149.503 244.57C173.079 252.049 196.202 261.2 220.314 266.415ZM718.9 54.1763H835.016C836.991 50.7505 837.801 46.7766 837.325 42.8511C836.849 38.9257 835.113 35.2605 832.377 32.4056C829.641 29.5508 826.053 27.6603 822.152 27.018C818.25 26.3756 814.245 27.016 810.738 28.8431C810.414 24.7669 809.204 20.8106 807.193 17.2502C805.182 13.6898 802.419 10.6111 799.095 8.22877C795.772 5.84646 791.969 4.21797 787.951 3.45693C783.934 2.69588 779.798 2.82061 775.834 3.82239C771.869 4.82417 768.171 6.67888 764.998 9.25714C761.824 11.8354 759.251 15.0751 757.458 18.7502C755.665 22.4253 754.696 26.4473 754.618 30.5356C754.54 34.6239 755.355 38.68 757.005 42.421C744.319 46.4454 731.876 51.3696 718.9 54.1763ZM705.41 237.934H999.809C1004.82 229.248 1006.87 219.173 1005.66 209.221C1004.46 199.269 1000.05 189.976 993.118 182.739C986.182 175.501 977.085 170.708 967.193 169.081C957.301 167.453 947.148 169.077 938.257 173.71C937.438 163.373 934.373 153.339 929.276 144.308C924.179 135.278 917.172 127.468 908.745 121.425C900.318 115.383 890.674 111.251 880.486 109.32C870.297 107.39 859.81 107.705 849.757 110.246C839.703 112.786 830.325 117.49 822.277 124.03C814.229 130.569 807.705 138.785 803.16 148.106C798.616 157.427 796.16 167.627 795.964 177.995C795.769 188.363 797.839 198.649 802.029 208.134C769.857 218.336 738.305 230.819 705.41 237.934Z" fill="#D8ECF3"/>
<path d="M666.579 258.928L703.998 271.684C709.195 273.455 713.988 276.238 718.103 279.872C722.218 283.506 725.572 287.92 727.971 292.858C730.371 297.795 731.768 303.159 732.083 308.64C732.398 314.121 731.623 319.61 729.805 324.79L676.541 476.5C581.907 398.671 542.204 317.43 565.422 281.34C583.137 253.803 635.672 255.362 666.579 258.928Z" fill="#77B4CB"/>
<path d="M665.586 301.069V581.998C643.007 589.02 620.06 594.793 596.847 599.292C567.314 605.078 537.378 608.574 507.306 609.748C483.373 610.568 459.413 609.954 435.553 607.907C401.564 605.07 367.843 599.618 334.691 591.599C320.334 588.102 306.087 584.091 292.069 579.565C291.324 579.313 290.568 579.072 289.812 578.82C275.619 574.162 261.667 568.956 248.143 563.18C247.343 562.84 246.554 562.501 245.754 562.15C242.038 560.55 238.36 558.902 234.717 557.207C233.567 556.67 232.416 556.133 231.276 555.574C227.583 553.832 223.929 552.034 220.316 550.182V243.29C220.318 236.378 223.064 229.75 227.951 224.862C232.838 219.975 239.467 217.229 246.378 217.228H365.883C369.715 217.227 373.5 218.071 376.968 219.7C380.437 221.329 383.503 223.703 385.95 226.653L418.226 265.571C420.672 268.52 423.739 270.894 427.207 272.523C430.676 274.152 434.461 274.997 438.293 274.996H639.523C642.947 274.995 646.337 275.669 649.5 276.979C652.663 278.29 655.537 280.21 657.958 282.632C660.378 285.053 662.297 287.928 663.606 291.091C664.915 294.255 665.588 297.645 665.586 301.069Z" fill="#48A6C9"/>
<path d="M633.954 156.012L686.112 173.67C704.279 260.84 666.581 258.928 666.581 258.928L666.252 272.369C666.481 276.397 665.845 280.426 664.385 284.186C662.925 287.947 660.676 291.35 657.79 294.168C654.903 296.985 651.446 299.151 647.651 300.519C643.857 301.888 639.813 302.427 635.793 302.1C632.099 301.799 628.501 300.775 625.204 299.084C621.906 297.393 618.974 295.069 616.575 292.245C614.176 289.421 612.357 286.152 611.221 282.625C610.085 279.097 609.655 275.381 609.955 271.688L615.757 213.821L605.66 213C601.599 212.669 597.836 210.739 595.198 207.634C592.56 204.529 591.264 200.503 591.593 196.442C591.639 195.886 591.709 195.333 591.805 194.784C592.218 192.409 593.095 190.14 594.385 188.104C595.675 186.068 597.353 184.307 599.324 182.92C601.295 181.533 603.52 180.548 605.872 180.021C608.224 179.494 610.656 179.435 613.031 179.848L618.307 180.764L633.954 156.012Z" fill="#C1EEFF"/>
<path d="M702.923 155.084C702.217 149.088 697.063 143.946 690.137 141.524C690.678 139.788 696.369 120.481 684.98 108.102C678.68 101.252 670.306 99.946 666.116 99.2917C639.841 95.1917 616.851 117.341 612.261 121.759C606.175 127.622 607.786 127.934 593.038 144.644C589.66 148.258 586.836 152.352 584.659 156.795C582.679 161.187 581.288 165.822 580.521 170.579C578.834 181.788 589.436 207.842 613.191 235.059L614.978 213.071L605.224 212.277H605.209C601.772 212.034 598.53 210.589 596.052 208.194C593.574 205.799 592.019 202.608 591.659 199.181C591.532 197.681 591.599 196.171 591.859 194.688C592.258 192.396 593.104 190.205 594.35 188.24C595.596 186.275 597.217 184.575 599.12 183.236C601.024 181.898 603.172 180.948 605.442 180.44C607.713 179.932 610.061 179.876 612.353 180.276C613.795 180.526 615.107 181.261 616.073 182.36C617.039 183.458 617.6 184.854 617.663 186.316L618.032 194.825C618.049 195.205 618.196 195.567 618.449 195.851C618.701 196.135 619.044 196.323 619.419 196.384C619.783 196.432 620.152 196.362 620.473 196.184C620.794 196.007 621.05 195.731 621.203 195.398L630.93 175.582C630.981 175.472 631.04 175.373 631.097 175.271C631.414 174.724 631.836 174.246 632.338 173.863C632.84 173.479 633.413 173.199 634.024 173.038C634.635 172.876 635.271 172.836 635.897 172.921C636.523 173.006 637.126 173.213 637.672 173.531C645.765 178.236 668.907 182.941 683.696 178.184C689.182 176.329 694.014 172.926 697.61 168.386C699.941 165.46 703.604 160.852 702.923 155.084Z" fill="#32677B"/>
<path d="M725.688 202.765C725.674 205.543 726.59 208.245 728.29 210.442C729.99 212.639 732.376 214.204 735.068 214.888L827.987 238.748C831.034 239.528 834.167 239.923 837.312 239.926H837.613C842.867 239.871 848.049 238.702 852.818 236.495C857.587 234.289 861.833 231.096 865.276 227.128C868.72 223.159 871.282 218.506 872.794 213.474C874.306 208.442 874.733 203.146 874.047 197.937C873.362 192.728 871.579 187.723 868.816 183.254C866.053 178.785 862.373 174.953 858.02 172.011C853.667 169.069 848.739 167.084 843.562 166.187C838.385 165.29 833.077 165.502 827.987 166.808L735.068 190.669C732.388 191.365 730.014 192.93 728.317 195.118C726.62 197.306 725.695 199.994 725.688 202.763V202.765Z" fill="#77B4CB"/>
<path d="M727.695 209.595C729.411 212.215 732.041 214.102 735.073 214.887L827.993 238.748C831.04 239.527 834.172 239.923 837.317 239.926H837.619L857.338 206.438L727.723 209.537L727.695 209.595Z" fill="#5896AD"/>
<path d="M836.949 239.945C857.337 239.945 873.864 223.418 873.864 203.031C873.864 182.643 857.337 166.116 836.949 166.116C816.562 166.116 800.035 182.643 800.035 203.031C800.035 223.418 816.562 239.945 836.949 239.945Z" fill="#87DDFD"/>
<path d="M836.944 233.334C853.68 233.334 867.248 219.767 867.248 203.031C867.248 186.295 853.68 172.728 836.944 172.728C820.208 172.728 806.641 186.295 806.641 203.031C806.641 219.767 820.208 233.334 836.944 233.334Z" fill="#32677B"/>
<path d="M857.042 215.998C857.417 215.999 857.786 215.896 858.107 215.701C858.429 215.506 858.691 215.227 858.864 214.894C861.813 209.263 862.523 202.725 860.853 196.592C859.183 190.459 855.256 185.184 849.86 181.825C849.631 181.677 849.375 181.576 849.106 181.528C848.838 181.48 848.563 181.486 848.297 181.545C848.031 181.605 847.779 181.717 847.557 181.874C847.334 182.032 847.145 182.232 847.001 182.463C846.857 182.694 846.76 182.952 846.716 183.221C846.672 183.49 846.683 183.765 846.746 184.03C846.81 184.295 846.925 184.545 847.087 184.765C847.248 184.985 847.451 185.171 847.684 185.311C852.203 188.122 855.491 192.537 856.889 197.672C858.287 202.806 857.691 208.279 855.221 212.992C855.058 213.305 854.978 213.655 854.99 214.008C855.001 214.361 855.103 214.705 855.286 215.007C855.469 215.309 855.726 215.559 856.034 215.733C856.341 215.906 856.689 215.998 857.042 215.998ZM843.524 227.163C843.575 227.163 843.634 227.163 843.681 227.163C845.749 226.98 847.755 226.36 849.567 225.345C851.378 224.329 852.953 222.941 854.189 221.272C854.341 221.049 854.447 220.798 854.502 220.534C854.557 220.27 854.56 219.997 854.509 219.732C854.459 219.467 854.357 219.214 854.209 218.989C854.061 218.763 853.87 218.569 853.647 218.417C853.424 218.265 853.173 218.158 852.909 218.103C852.645 218.048 852.372 218.046 852.107 218.096C851.842 218.147 851.589 218.249 851.363 218.397C851.138 218.545 850.943 218.736 850.791 218.959C849.909 220.122 848.793 221.089 847.515 221.796C846.238 222.503 844.826 222.935 843.372 223.065C842.844 223.107 842.352 223.352 842 223.748C841.648 224.143 841.462 224.66 841.482 225.189C841.501 225.719 841.725 226.22 842.105 226.589C842.485 226.958 842.993 227.165 843.523 227.168L843.524 227.163Z" fill="white"/>
<path d="M632.442 202.765C632.428 205.543 633.344 208.245 635.044 210.442C636.744 212.639 639.13 214.204 641.822 214.888L734.741 238.748C737.788 239.528 740.921 239.923 744.066 239.926H744.367C749.621 239.871 754.803 238.702 759.572 236.495C764.341 234.289 768.587 231.096 772.03 227.128C775.474 223.159 778.036 218.506 779.548 213.474C781.06 208.442 781.487 203.146 780.801 197.937C780.116 192.728 778.332 187.723 775.57 183.254C772.807 178.785 769.127 174.953 764.774 172.011C760.421 169.069 755.493 167.084 750.316 166.187C745.139 165.29 739.83 165.502 734.741 166.808L641.822 190.669C639.142 191.365 636.768 192.93 635.071 195.118C633.374 197.306 632.449 199.994 632.442 202.763V202.765Z" fill="#77B4CB"/>
<path d="M634.441 209.595C636.157 212.215 638.788 214.102 641.819 214.887L734.739 238.748C737.786 239.527 740.918 239.923 744.063 239.926H744.365L764.084 206.438L634.469 209.537L634.441 209.595Z" fill="#5896AD"/>
<path d="M743.703 239.945C764.091 239.945 780.618 223.418 780.618 203.031C780.618 182.643 764.091 166.116 743.703 166.116C723.316 166.116 706.789 182.643 706.789 203.031C706.789 223.418 723.316 239.945 743.703 239.945Z" fill="#87DDFD"/>
<path d="M743.698 233.334C760.434 233.334 774.001 219.767 774.001 203.031C774.001 186.295 760.434 172.728 743.698 172.728C726.962 172.728 713.395 186.295 713.395 203.031C713.395 219.767 726.962 233.334 743.698 233.334Z" fill="#32677B"/>
<path d="M763.795 215.998C764.171 215.999 764.54 215.896 764.861 215.701C765.183 215.506 765.444 215.227 765.618 214.894C768.567 209.263 769.277 202.725 767.607 196.592C765.937 190.459 762.01 185.184 756.614 181.825C756.385 181.677 756.129 181.576 755.86 181.528C755.592 181.48 755.317 181.486 755.051 181.545C754.785 181.605 754.533 181.717 754.311 181.874C754.088 182.032 753.899 182.232 753.755 182.463C753.611 182.694 753.514 182.952 753.47 183.221C753.426 183.49 753.436 183.765 753.5 184.03C753.564 184.295 753.679 184.545 753.84 184.765C754.001 184.985 754.205 185.171 754.438 185.311C758.957 188.122 762.245 192.537 763.643 197.672C765.041 202.806 764.445 208.279 761.975 212.992C761.812 213.305 761.732 213.655 761.743 214.008C761.755 214.361 761.857 214.705 762.04 215.007C762.223 215.309 762.48 215.559 762.788 215.733C763.095 215.906 763.442 215.998 763.795 215.998ZM750.278 227.163C750.329 227.163 750.387 227.163 750.435 227.163C752.503 226.98 754.509 226.36 756.32 225.345C758.132 224.329 759.707 222.941 760.943 221.272C761.249 220.822 761.365 220.268 761.263 219.732C761.161 219.197 760.851 218.723 760.401 218.417C759.95 218.11 759.396 217.995 758.861 218.096C758.325 218.198 757.852 218.508 757.545 218.959C756.663 220.122 755.547 221.089 754.269 221.796C752.991 222.503 751.58 222.935 750.125 223.065C749.597 223.107 749.106 223.352 748.754 223.748C748.402 224.143 748.216 224.66 748.236 225.189C748.255 225.719 748.478 226.22 748.859 226.589C749.239 226.958 749.747 227.165 750.277 227.168L750.278 227.163Z" fill="white"/>
<path d="M650.701 218.063L636.057 250.146L589.711 249.013C589.711 249.013 619.587 175.298 667.36 184.121C667.36 184.121 643.896 195.464 650.701 218.063Z" fill="#C1EEFF"/>
<path d="M650.701 218.06L636.057 250.144L589.711 249.01L619.908 244.72C624.374 244.085 628.613 242.348 632.24 239.667C635.868 236.985 638.771 233.442 640.688 229.359C643.551 223.115 645.33 216.429 645.948 209.588C648.076 188.198 667.358 184.118 667.358 184.118C667.358 184.118 643.896 195.461 650.701 218.06ZM600.037 198.788C600.023 198.736 598.757 193.515 601.445 190.583C603.232 188.637 606.457 188.023 611.042 188.756L611.493 185.934C605.894 185.041 601.801 185.958 599.328 188.665C595.602 192.748 597.198 199.216 597.268 199.49L600.037 198.788ZM666.26 272.541C655.24 270.71 646.295 265.102 638.957 256.679C647.323 260.245 666.575 258.926 666.575 258.926L666.26 272.541ZM669.573 239.023L670.289 236.55C663.954 234.716 657.433 233.596 650.849 233.211L650.699 235.78C657.092 236.153 663.423 237.24 669.573 239.023Z" fill="#9CD7ED"/>
<path d="M611.594 214.231L609.426 212.554C627.378 189.353 647.494 179.052 667.607 182.772L667.109 185.466C643.05 181.021 623.645 198.655 611.594 214.231Z" fill="#9CD7ED"/>
<path d="M676.543 301.069V578.48C672.904 579.685 669.251 580.858 665.583 581.998C643.005 589.02 620.057 594.793 596.844 599.292C567.311 605.078 537.375 608.574 507.303 609.748C483.371 610.568 459.41 609.954 435.551 607.907C401.561 605.07 367.84 599.618 334.689 591.599C320.332 588.102 306.084 584.091 292.067 579.565C291.321 579.313 290.565 579.072 289.809 578.82C275.616 574.162 261.665 568.956 248.14 563.18C247.34 562.84 246.551 562.501 245.751 562.15C242.036 560.55 238.357 558.902 234.715 557.207C233.564 556.67 232.413 556.133 231.273 555.574V243.29C231.275 236.378 234.021 229.75 238.908 224.862C243.795 219.975 250.424 217.229 257.336 217.228H376.84C380.672 217.227 384.457 218.071 387.925 219.7C391.394 221.329 394.46 223.703 396.907 226.653L429.183 265.571C431.629 268.52 434.696 270.894 438.165 272.523C441.633 274.152 445.418 274.997 449.25 274.996H650.481C657.393 275.002 664.02 277.751 668.907 282.64C673.793 287.528 676.54 294.157 676.543 301.069Z" fill="#68B7D4"/>
<path d="M619.477 313.046H485.611C478.607 313.046 472.93 318.724 472.93 325.727V337.705C472.93 344.709 478.607 350.387 485.611 350.387H619.477C626.481 350.387 632.158 344.709 632.158 337.705V325.727C632.158 318.724 626.481 313.046 619.477 313.046Z" fill="#48A6C9"/>
<path d="M421.852 533.92H287.986C280.982 533.92 275.305 539.598 275.305 546.601V558.579C275.305 565.583 280.982 571.261 287.986 571.261H421.852C428.856 571.261 434.533 565.583 434.533 558.579V546.601C434.533 539.598 428.856 533.92 421.852 533.92Z" fill="#48A6C9"/>
<path d="M251.465 259.5H393.079" stroke="white" stroke-width="5.09259" stroke-linecap="round" stroke-linejoin="round"/>
<path d="M453.91 275L594.997 230.103L641.343 251.146L602.156 275H453.91Z" fill="#77B4CB"/>
<path d="M665.313 350.597C665.313 350.597 590.806 373.925 665.389 372.828C665.389 372.828 589.118 385.526 665.447 390.084C665.447 390.084 591.73 401.764 665.506 407.49C665.506 407.49 592.799 420.204 665.561 423.431L668.849 423.361C672.15 423.293 675.358 422.256 678.076 420.381C680.793 418.505 682.9 415.873 684.135 412.81C690.837 396.408 691.223 378.104 685.218 361.435C683.977 358.029 681.668 355.116 678.636 353.13C675.604 351.145 672.011 350.192 668.394 350.416L665.313 350.597Z" fill="#C1EEFF"/>
<path d="M641.343 251.145L453.91 274.998H602.156L641.343 251.145Z" fill="#5896AD"/>
<path d="M632.502 368.542L665.388 372.828C665.388 372.828 634.948 378.419 632.502 368.542ZM631.551 383.292L665.447 390.087C665.447 390.087 633.038 397.348 631.551 383.292ZM632.722 400.226L665.505 407.49C665.505 407.49 630.784 411.714 632.722 400.226ZM633.21 417.864L675.758 421.716C675.758 421.716 636.008 433.557 633.21 417.864Z" fill="#9CD7ED"/>
</svg>
