<svg width="354" height="399" viewBox="0 0 354 399" fill="none" xmlns="http://www.w3.org/2000/svg">
<path d="M246.123 16.8755C247.329 17.6145 248.534 18.353 249.74 19.0908C252.24 20.6206 254.737 22.1531 257.233 23.688C263.331 27.4358 269.445 31.157 275.561 34.8755C276.442 35.4116 276.442 35.4116 277.34 35.9585C284.57 40.3578 291.839 44.6749 299.186 48.8755C305.286 52.3854 311.343 55.9556 317.311 59.688C317.999 60.1035 318.687 60.5191 319.396 60.9473C324.324 64.0865 328.177 67.8288 330.998 73.0005C332.462 80.1206 330.256 85.0068 327.127 91.3364C325.115 96.0852 325.11 100.204 326.662 105.09C330.479 113.735 338.119 119.036 345.467 124.537C351.164 128.804 351.164 128.804 352.998 131C352.998 131.66 352.998 132.32 352.998 133C329.238 133 305.478 133 280.998 133C281.37 124.565 281.741 116.129 282.123 107.438C282.941 91.1558 282.941 91.1558 277.722 76.2114C271.875 70.8264 264.892 68.4046 257.38 66.1299C252.353 64.451 248.22 61.7609 243.811 58.8755C242.23 57.9105 240.644 56.9535 239.053 56.0044C238.25 55.5237 237.446 55.0431 236.619 54.5478C231.591 51.5785 226.516 48.692 221.436 45.813C220.441 45.2476 219.446 44.6821 218.422 44.0996C217.497 43.5783 216.572 43.0571 215.62 42.52C214.799 42.057 213.978 41.594 213.133 41.1169C205.197 36.966 193.313 37.921 184.748 39.6606C175.035 43.3739 166.132 49.9215 157.39 55.4834C154.443 57.3526 151.475 59.1804 148.498 61.0005C143.837 63.8647 139.185 66.7425 134.535 69.6247C127.139 74.2083 119.739 78.7823 112.311 83.313C101.594 89.8498 90.9053 96.431 80.2196 103.018C77.132 104.918 74.0404 106.812 70.9476 108.704C69.0895 109.844 67.2314 110.985 65.3734 112.125C64.5396 112.633 63.7059 113.141 62.8468 113.664C53.3918 119.195 53.3918 119.195 45.9984 127C45.4391 131.693 45.4365 136.315 46.9359 140.813C53.7076 147.995 63.7545 152.451 72.2484 157.375C80.5319 162.185 88.7664 167.051 96.9115 172.093C101.749 175.082 106.622 178.013 111.498 180.938C112.547 181.567 113.595 182.196 114.674 182.844C124.438 188.689 134.25 194.451 144.077 200.19C150.048 203.678 156.003 207.186 161.909 210.784C168.95 214.884 175.859 216.217 183.998 215C191.144 212.77 197.156 209.247 203.311 205.063C205.069 203.894 206.828 202.728 208.588 201.563C209.483 200.97 210.377 200.377 211.299 199.766C215.606 196.949 219.987 194.255 224.373 191.563C231.52 187.169 238.62 182.71 245.686 178.188C253.851 172.972 262.062 167.834 270.311 162.75C271.323 162.126 272.335 161.501 273.378 160.857C275.448 159.585 277.53 158.332 279.622 157.098C282.076 155.574 284.297 154.046 286.588 152.313C299.602 142.943 312.543 143.834 328.061 144.375C330.585 144.426 333.109 144.471 335.633 144.512C341.757 144.621 347.877 144.788 353.998 145C350 158.771 341.057 165.267 328.936 172.25C327.69 172.986 326.444 173.723 325.2 174.461C322.066 176.315 318.92 178.149 315.77 179.974C313.114 181.513 310.465 183.062 307.815 184.61C304.906 186.307 301.996 188.002 299.082 189.691C287.729 196.283 276.53 203.128 265.326 209.969C260.386 212.984 255.442 215.992 250.498 219C248.646 220.128 246.793 221.256 244.94 222.383C243.519 223.248 243.519 223.248 242.069 224.13C239.275 225.832 236.482 227.535 233.689 229.239C231.212 230.75 228.733 232.259 226.255 233.768C225.071 234.489 223.887 235.211 222.703 235.934C184.991 258.965 184.991 258.965 164.666 254.223C158.387 251.809 152.758 248.126 147.117 244.501C140.013 239.937 132.729 235.69 125.436 231.438C122.901 229.958 120.365 228.477 117.83 226.997C117.226 226.644 116.621 226.291 115.998 225.927C109.295 222.011 102.642 218.017 95.9984 214C84.6587 207.163 73.2655 200.419 61.8612 193.69C59.064 192.039 56.2674 190.387 53.4711 188.735C52.5663 188.2 51.6616 187.666 50.7294 187.115C48.9132 186.041 47.0977 184.966 45.2831 183.89C40.5308 181.073 35.7644 178.286 30.9711 175.54C29.9817 174.968 28.9924 174.396 27.973 173.807C26.0928 172.721 24.2076 171.644 22.3168 170.577C12.8461 165.082 5.6174 158.294 2.24842 147.625C-0.98253 133.625 1.52096 122.212 8.10779 109.739C12.7527 103.011 18.817 98.446 25.6234 94.063C26.4176 93.5428 27.2117 93.0227 28.0299 92.4868C33.4839 88.9312 38.9967 85.4823 44.5609 82.102C48.7159 79.5741 52.8253 76.9747 56.9359 74.3755C57.7329 73.8716 58.5298 73.3678 59.351 72.8486C64.6943 69.4666 70.0297 66.072 75.3629 62.6741C98.3559 48.0248 98.3559 48.0248 109.104 41.5044C117.98 36.1195 126.765 30.6141 135.498 25.0005C175.864 -0.886288 203.109 -9.72636 246.123 16.8755Z" fill="#FBFCF6"/>
<path d="M146.365 109.828C148.255 110.866 150.129 111.928 152 113C152.606 113.343 153.212 113.686 153.836 114.039C164.971 120.37 175.866 127.132 186.799 133.803C191.842 136.879 196.883 139.953 201.992 142.918C202.688 143.324 203.384 143.73 204.101 144.148C205.834 145.153 207.573 146.147 209.312 147.14C212.209 149.145 214.031 151.088 216 154C216.646 157.795 216.195 159.601 214.5 163.062C210.669 167.564 207.161 170.308 201.305 171.59C192.791 172.237 186.927 168.751 180.014 164.287C176.311 161.92 172.522 159.692 168.75 157.437C167.923 156.938 167.096 156.44 166.244 155.926C159.071 151.605 151.824 147.419 144.562 143.25C129.836 134.779 129.836 134.779 124.125 131.312C123.199 130.752 122.274 130.191 121.32 129.613C117.579 127.012 115.355 125.046 113.875 120.687C114.027 116.206 115.074 114.704 118.137 111.578C127.277 103.836 136.062 104.382 146.365 109.828Z" fill="#FAFBF6"/>
<path d="M226.032 88.2355C229.009 90.0052 232 91.7501 234.996 93.488C235.971 94.0557 236.945 94.6235 237.95 95.2084C239.798 96.2843 241.649 97.3558 243.503 98.4218C258.634 107.268 258.634 107.268 261 112C261.463 115.37 261.635 117.891 259.906 120.91C255.415 126.536 250.339 129.003 243.188 129.812C234.19 129.565 226.434 123.564 219 119C217.808 118.284 216.616 117.571 215.422 116.859C213.7 115.829 211.978 114.799 210.267 113.752C206.061 111.189 201.796 108.751 197.496 106.347C195.731 105.354 193.967 104.359 192.202 103.364C190.477 102.397 188.743 101.444 187.01 100.491C180.788 96.9774 176.135 93.8785 172 87.9997C171.25 84.9997 171.25 84.9997 172 81.9997C175.512 76.4214 179.748 73.5084 185.938 71.3122C200.351 69.1283 214.174 81.1414 226.032 88.2355Z" fill="#FAFCF5"/>
<path d="M7.16611 198C9.88611 194.371 17.4861 188 18.1661 188C24.1061 199.924 27.4901 203.313 35.1661 209C36.3631 209.887 95.2281 243.963 105.325 249.838C111.529 253.452 146.789 274.375 150.224 276.527C161.347 283.474 171.66 288.184 185.166 286C194.399 283.839 297.213 222.942 299.981 221.295C301.491 220.4 303.005 219.511 304.522 218.627C318.221 210.609 330.614 201.641 339.166 188C345.193 190.642 349.208 196.24 352.166 202C354.601 209.529 354.289 219.604 351.302 226.93C345.663 237.202 335.931 242.292 326.166 248C324.446 249.021 322.727 250.043 321.009 251.066C316.352 253.835 311.684 256.583 307.012 259.327C302.392 262.043 211.035 316.054 207.373 318.441C196.352 325.591 185.462 329.611 172.166 328C158.875 324.936 112.175 295.066 106.791 291.875C95.9521 285.454 32.2141 248.492 29.9811 247.237C19.1901 241.081 9.46511 234.634 4.16611 223C2.06811 213.982 2.64711 206.16 7.16611 198Z" fill="#76ADC4"/>
<path d="M7.16611 268C9.88611 264.371 17.4861 258 18.1661 258C24.1061 269.924 27.4901 273.313 35.1661 279C36.3631 279.887 95.2281 313.963 105.325 319.838C111.529 323.452 146.789 344.375 150.224 346.527C161.347 353.474 171.66 358.184 185.166 356C194.399 353.839 297.213 292.942 299.981 291.295C301.491 290.4 303.005 289.511 304.522 288.627C318.221 280.609 330.614 271.641 339.166 258C345.193 260.642 349.208 266.24 352.166 272C354.601 279.529 354.289 289.604 351.302 296.93C345.663 307.202 335.931 312.292 326.166 318C324.446 319.021 322.727 320.043 321.009 321.066C316.352 323.835 311.684 326.583 307.012 329.327C302.392 332.043 211.035 386.054 207.373 388.441C196.352 395.591 185.462 399.611 172.166 398C158.875 394.936 112.175 365.066 106.791 361.875C95.9521 355.454 32.2141 318.492 29.9811 317.237C19.1901 311.081 9.46511 304.634 4.16611 293C2.06811 283.982 2.64711 276.16 7.16611 268Z" fill="#417B99"/>
</svg>
