<svg xmlns="http://www.w3.org/2000/svg" xmlns:xlink="http://www.w3.org/1999/xlink" width="1920" zoomAndPan="magnify" viewBox="0 0 1440 809.999993" height="1080" preserveAspectRatio="xMidYMid meet" version="1.0"><defs><g/><clipPath id="dd2c154952"><path d="M 0.320312 0.921875 L 263 0.921875 L 263 521 L 0.320312 521 Z M 0.320312 0.921875 " clip-rule="nonzero"/></clipPath><clipPath id="38ef5513de"><rect x="0" width="263" y="0" height="521"/></clipPath><clipPath id="55121854b0"><path d="M 137 47 L 399.679688 47 L 399.679688 566.839844 L 137 566.839844 Z M 137 47 " clip-rule="nonzero"/></clipPath><clipPath id="11426c41dd"><rect x="0" width="263" y="0" height="520"/></clipPath><clipPath id="8284f4b3c4"><rect x="0" width="400" y="0" height="567"/></clipPath></defs><rect x="-144" width="1728" fill="#ffffff" y="-80.999999" height="971.999992" fill-opacity="1"/><rect x="-144" width="1728" fill="#ffffff" y="-80.999999" height="971.999992" fill-opacity="1"/><g transform="matrix(1, 0, 0, 1, 520, 121)"><g clip-path="url(#8284f4b3c4)"><g clip-path="url(#dd2c154952)"><g transform="matrix(1, 0, 0, 1, 0, 0.000000000000042633)"><g clip-path="url(#38ef5513de)"><g fill="#440081" fill-opacity="1"><g transform="translate(262.133718, 93.560487)"><g><path d="M -108.09375 391.875 C -142.394531 391.875 -168.378906 387.800781 -186.046875 379.65625 C -203.722656 371.507812 -218.019531 358.773438 -228.9375 341.453125 C -239.851562 324.128906 -245.3125 304.554688 -245.3125 282.734375 C -245.3125 250.847656 -234.828125 224.335938 -213.859375 203.203125 C -192.898438 182.066406 -161.457031 171.5 -119.53125 171.5 L -83.15625 171.5 L -83.15625 0 L -39.5 0 L -39.5 391.875 Z M -83.15625 212.046875 L -106.546875 212.046875 C -140.847656 212.046875 -165.273438 217.9375 -179.828125 229.71875 C -194.378906 241.5 -201.65625 259.171875 -201.65625 282.734375 C -201.65625 306.640625 -194.460938 324.046875 -180.078125 334.953125 C -165.703125 345.867188 -140.320312 351.328125 -103.9375 351.328125 L -83.15625 351.328125 Z M -83.15625 212.046875 "/></g></g></g></g></g></g><g clip-path="url(#55121854b0)"><g transform="matrix(1, 0, 0, 1, 137, 47)"><g clip-path="url(#11426c41dd)"><g fill="#440081" fill-opacity="1"><g transform="translate(0.863645, 427.419366)"><g><path d="M 108.09375 -391.875 C 142.394531 -391.875 168.378906 -387.800781 186.046875 -379.65625 C 203.722656 -371.507812 218.019531 -358.773438 228.9375 -341.453125 C 239.851562 -324.128906 245.3125 -304.554688 245.3125 -282.734375 C 245.3125 -250.847656 234.828125 -224.335938 213.859375 -203.203125 C 192.898438 -182.066406 161.457031 -171.5 119.53125 -171.5 L 83.15625 -171.5 L 83.15625 0 L 39.5 0 L 39.5 -391.875 Z M 83.15625 -212.046875 L 106.546875 -212.046875 C 140.847656 -212.046875 165.273438 -217.9375 179.828125 -229.71875 C 194.378906 -241.5 201.65625 -259.171875 201.65625 -282.734375 C 201.65625 -306.640625 194.460938 -324.046875 180.078125 -334.953125 C 165.703125 -345.867188 140.320312 -351.328125 103.9375 -351.328125 L 83.15625 -351.328125 Z M 83.15625 -212.046875 "/></g></g></g></g></g></g></g></g></svg>
