<svg xmlns="http://www.w3.org/2000/svg" xmlns:xlink="http://www.w3.org/1999/xlink" width="512" height="512" viewBox="479.136719 164.136719 481.726562 481.726562" preserveAspectRatio="xMidYMid meet" version="1.0"><defs><g/><clipPath id="3f4e311fc0"><path d="M 479.136719 164.136719 L 960.863281 164.136719 L 960.863281 645.863281 L 479.136719 645.863281 Z M 479.136719 164.136719 " clip-rule="nonzero"/></clipPath><clipPath id="e9d28c1860"><path d="M 720 164.136719 C 586.976562 164.136719 479.136719 271.976562 479.136719 405 C 479.136719 538.023438 586.976562 645.863281 720 645.863281 C 853.023438 645.863281 960.863281 538.023438 960.863281 405 C 960.863281 271.976562 853.023438 164.136719 720 164.136719 Z M 720 164.136719 " clip-rule="nonzero"/></clipPath><clipPath id="f20d5f9d00"><path d="M 0.136719 0.136719 L 481.863281 0.136719 L 481.863281 481.863281 L 0.136719 481.863281 Z M 0.136719 0.136719 " clip-rule="nonzero"/></clipPath><clipPath id="240c3e099f"><path d="M 241 0.136719 C 107.976562 0.136719 0.136719 107.976562 0.136719 241 C 0.136719 374.023438 107.976562 481.863281 241 481.863281 C 374.023438 481.863281 481.863281 374.023438 481.863281 241 C 481.863281 107.976562 374.023438 0.136719 241 0.136719 Z M 241 0.136719 " clip-rule="nonzero"/></clipPath><clipPath id="3801bd48f6"><rect x="0" width="482" y="0" height="482"/></clipPath><clipPath id="e9de983701"><path d="M 103 34 L 299.519531 34 L 299.519531 423.558594 L 103 423.558594 Z M 103 34 " clip-rule="nonzero"/></clipPath><clipPath id="2a97b25781"><rect x="0" width="197" y="0" height="390"/></clipPath><clipPath id="3a66566c30"><path d="M 0.480469 0.441406 L 197 0.441406 L 197 390 L 0.480469 390 Z M 0.480469 0.441406 " clip-rule="nonzero"/></clipPath><clipPath id="a87bdce50e"><rect x="0" width="197" y="0" height="390"/></clipPath><clipPath id="03e55d1aa9"><rect x="0" width="300" y="0" height="424"/></clipPath></defs><g clip-path="url(#3f4e311fc0)"><g clip-path="url(#e9d28c1860)"><g transform="matrix(1, 0, 0, 1, 479, 164)"><g clip-path="url(#3801bd48f6)"><g clip-path="url(#f20d5f9d00)"><g clip-path="url(#240c3e099f)"><path fill="#440081" d="M 0.136719 0.136719 L 481.863281 0.136719 L 481.863281 481.863281 L 0.136719 481.863281 Z M 0.136719 0.136719 " fill-opacity="1" fill-rule="nonzero"/></g></g></g></g></g></g><g transform="matrix(1, 0, 0, 1, 570, 193)"><g clip-path="url(#03e55d1aa9)"><g clip-path="url(#e9de983701)"><g transform="matrix(1, 0, 0, 1, 103, 34)"><g clip-path="url(#2a97b25781)"><g fill="#ffffff" fill-opacity="1"><g transform="translate(0.531086, 320.414595)"><g><path d="M 80.84375 -293.078125 C 106.5 -293.078125 125.929688 -290.03125 139.140625 -283.9375 C 152.359375 -277.84375 163.046875 -268.316406 171.203125 -255.359375 C 179.367188 -242.410156 183.453125 -227.773438 183.453125 -211.453125 C 183.453125 -187.609375 175.613281 -167.78125 159.9375 -151.96875 C 144.257812 -136.164062 120.742188 -128.265625 89.390625 -128.265625 L 62.1875 -128.265625 L 62.1875 0 L 29.546875 0 L 29.546875 -293.078125 Z M 62.1875 -158.578125 L 79.6875 -158.578125 C 105.332031 -158.578125 123.597656 -162.984375 134.484375 -171.796875 C 145.367188 -180.609375 150.8125 -193.828125 150.8125 -211.453125 C 150.8125 -229.328125 145.429688 -242.34375 134.671875 -250.5 C 123.921875 -258.664062 104.941406 -262.75 77.734375 -262.75 L 62.1875 -262.75 Z M 62.1875 -158.578125 "/></g></g></g></g></g></g><g clip-path="url(#3a66566c30)"><g transform="matrix(1, 0, 0, 1, -0.000000000000113687, 0.000000000000028422)"><g clip-path="url(#a87bdce50e)"><g fill="#ffffff" fill-opacity="1"><g transform="translate(196.468679, 69.580724)"><g><path d="M -80.84375 293.078125 C -106.5 293.078125 -125.929688 290.03125 -139.140625 283.9375 C -152.359375 277.84375 -163.046875 268.316406 -171.203125 255.359375 C -179.367188 242.410156 -183.453125 227.773438 -183.453125 211.453125 C -183.453125 187.609375 -175.613281 167.78125 -159.9375 151.96875 C -144.257812 136.164062 -120.742188 128.265625 -89.390625 128.265625 L -62.1875 128.265625 L -62.1875 0 L -29.546875 0 L -29.546875 293.078125 Z M -62.1875 158.578125 L -79.6875 158.578125 C -105.332031 158.578125 -123.597656 162.984375 -134.484375 171.796875 C -145.367188 180.609375 -150.8125 193.828125 -150.8125 211.453125 C -150.8125 229.328125 -145.429688 242.34375 -134.671875 250.5 C -123.921875 258.664062 -104.941406 262.75 -77.734375 262.75 L -62.1875 262.75 Z M -62.1875 158.578125 "/></g></g></g></g></g></g></g></g></svg>

